# xmcd
#
# Track frame offsets: 
#        150
#        21307
#        44789
#        67735
#        90263
#        109531
#        131213
#        147368
#        181933
#        211289
#
# Disc length: 3127 seconds
#
# Revision: 0
# Processed by: cddbd v1.5.2PL0 Copyright (c) Steve Scherf et al.
# Submitted via: ExactAudioCopy v1.3
#
DISCID=8a0c350a
DTITLE=Izzo Blues Coalition - The Rocking Blues Covers
DYEAR=2019
DGENRE=Blues Rock
TTITLE0=The Sky is Crying
TTITLE1=Crossroads
TTITLE2=Little Wing
TTITLE3=Sweet Home Chicago
TTITLE4=Mustang Sally
TTITLE5=Rock and Roll
TTITLE6=Scuttle Buttin'
TTITLE7=Red House
TTITLE8=Going Down
TTITLE9=Riff Raff
EXTD=
EXTT0=
EXTT1=
EXTT2=
EXTT3=
EXTT4=
EXTT5=
EXTT6=
EXTT7=
EXTT8=
EXTT9=
PLAYORDER=
